<svg preserveAspectRatio="none" width="100%" height="100%" overflow="visible" style="display: block;" viewBox="0 0 18 18" fill="none" xmlns="http://www.w3.org/2000/svg">
<g id="X">
<path id="Vector" d="M15.6597 13.4655C15.8182 13.624 15.9072 13.839 15.9072 14.0631C15.9072 14.2873 15.8182 14.5023 15.6597 14.6608C15.5012 14.8193 15.2862 14.9084 15.062 14.9084C14.8378 14.9084 14.6229 14.8193 14.4644 14.6608L10.0002 10.1953L5.53467 14.6594C5.37616 14.8179 5.16118 14.9069 4.93701 14.9069C4.71285 14.9069 4.49786 14.8179 4.33935 14.6594C4.18085 14.5009 4.0918 14.2859 4.0918 14.0617C4.0918 13.8376 4.18085 13.6226 4.33935 13.4641L8.8049 8.99994L4.34076 4.53439C4.18225 4.37588 4.0932 4.1609 4.0932 3.93674C4.0932 3.71257 4.18225 3.49759 4.34076 3.33908C4.49927 3.18057 4.71425 3.09152 4.93842 3.09152C5.16258 3.09152 5.37756 3.18057 5.53607 3.33908L10.0002 7.80463L14.4658 3.33838C14.6243 3.17987 14.8393 3.09082 15.0634 3.09082C15.2876 3.09082 15.5026 3.17987 15.6611 3.33838C15.8196 3.49689 15.9086 3.71187 15.9086 3.93603C15.9086 4.1602 15.8196 4.37518 15.6611 4.53369L11.1955 8.99994L15.6597 13.4655Z" fill="var(--fill-0, #C7C7C7)"/>
</g>
</svg>
