<svg preserveAspectRatio="none" width="100%" height="100%" overflow="visible" style="display: block;" viewBox="0 0 14 14" fill="none" xmlns="http://www.w3.org/2000/svg">
<g id="Link">
<path id="Vector" d="M13.125 4.82508C13.103 5.58669 12.7899 6.31088 12.25 6.84852L10.3496 8.75C10.0728 9.0283 9.7436 9.24893 9.38097 9.39912C9.01834 9.54932 8.62953 9.62609 8.23703 9.625H8.2343C7.8351 9.62472 7.44 9.54444 7.07235 9.3889C6.7047 9.23336 6.37195 9.00571 6.09376 8.71941C5.81556 8.43311 5.59756 8.09396 5.45264 7.722C5.30772 7.35003 5.23882 6.95279 5.25 6.55375C5.25326 6.43772 5.30249 6.32773 5.38684 6.248C5.4712 6.16826 5.58377 6.12529 5.6998 6.12856C5.81584 6.13182 5.92582 6.18104 6.00556 6.2654C6.0853 6.34975 6.12826 6.46233 6.125 6.57836C6.11703 6.86051 6.1657 7.14139 6.26813 7.40441C6.37056 7.66743 6.52467 7.90724 6.72136 8.10969C6.91805 8.31214 7.15332 8.47311 7.41327 8.58309C7.67322 8.69307 7.95258 8.74982 8.23484 8.75C8.51231 8.75071 8.78716 8.69642 9.04352 8.59025C9.29987 8.48409 9.53264 8.32816 9.72836 8.13149L11.6287 6.23109C12.0208 5.83407 12.2399 5.29804 12.2382 4.74004C12.2364 4.18205 12.014 3.6474 11.6194 3.25284C11.2249 2.85827 10.6902 2.63583 10.1322 2.63409C9.57422 2.63234 9.0382 2.85143 8.64117 3.24352L8.03961 3.84508C7.95689 3.92366 7.84675 3.96682 7.73267 3.96536C7.61859 3.9639 7.50959 3.91794 7.42891 3.83726C7.34824 3.75658 7.30227 3.64758 7.30081 3.5335C7.29935 3.41942 7.34251 3.30928 7.42109 3.22656L8.02266 2.625C8.30019 2.34737 8.62971 2.12713 8.99238 1.97687C9.35504 1.82661 9.74376 1.74928 10.1363 1.74928C10.5289 1.74928 10.9176 1.82661 11.2803 1.97687C11.6429 2.12713 11.9725 2.34737 12.25 2.625C12.5375 2.91318 12.7633 3.25684 12.9137 3.63507C13.0641 4.0133 13.136 4.41818 13.125 4.82508ZM5.96094 10.1533L5.35937 10.7548C5.16317 10.9524 4.92966 11.1089 4.67242 11.2154C4.41518 11.3218 4.13934 11.3761 3.86094 11.375C3.44329 11.3747 3.03511 11.2505 2.68798 11.0183C2.34085 10.7861 2.07034 10.4562 1.91063 10.0703C1.75091 9.68438 1.70917 9.2598 1.79067 8.85018C1.87217 8.44056 2.07325 8.06429 2.36852 7.76891L4.26562 5.86852C4.56443 5.56813 4.94665 5.36454 5.36265 5.28417C5.77865 5.20381 6.2092 5.25038 6.59839 5.41785C6.98758 5.58532 7.31742 5.86594 7.54508 6.22328C7.77273 6.58061 7.88768 6.99814 7.875 7.42164C7.87174 7.53767 7.9147 7.65025 7.99444 7.7346C8.07418 7.81896 8.18416 7.86818 8.30019 7.87145C8.41623 7.87471 8.5288 7.83175 8.61316 7.75201C8.69751 7.67227 8.74674 7.56228 8.75 7.44625C8.7605 7.03999 8.68836 6.63584 8.53795 6.2583C8.38754 5.88077 8.16199 5.53773 7.875 5.25C7.31455 4.6898 6.55457 4.3751 5.76215 4.3751C4.96973 4.3751 4.20974 4.6898 3.6493 5.25L1.75 7.15039C1.33231 7.56791 1.04777 8.09987 0.932318 8.67905C0.81687 9.25824 0.875702 9.85865 1.10138 10.4044C1.32706 10.9502 1.70945 11.4168 2.20024 11.7453C2.69102 12.0738 3.26817 12.2494 3.85875 12.25C4.25134 12.2511 4.64025 12.1744 5.00297 12.0242C5.36569 11.874 5.69501 11.6533 5.97187 11.375L6.57344 10.7734C6.64424 10.69 6.68123 10.5831 6.67711 10.4738C6.67299 10.3645 6.62807 10.2607 6.55119 10.1829C6.47432 10.105 6.37108 10.0588 6.26181 10.0533C6.15255 10.0479 6.04521 10.0835 5.96094 10.1533Z" fill="var(--fill-0, #666661)"/>
</g>
</svg>
