<svg preserveAspectRatio="none" width="100%" height="100%" overflow="visible" style="display: block;" viewBox="0 0 12 12" fill="none" xmlns="http://www.w3.org/2000/svg">
<g id="ArrowUpRight">
<path id="Vector" d="M9.5625 3V7.875C9.5625 8.02418 9.50324 8.16726 9.39775 8.27275C9.29226 8.37824 9.14918 8.4375 9 8.4375C8.85082 8.4375 8.70774 8.37824 8.60225 8.27275C8.49676 8.16726 8.4375 8.02418 8.4375 7.875V4.35938L3.39797 9.39797C3.2923 9.50364 3.14897 9.56301 2.99953 9.56301C2.85009 9.56301 2.70677 9.50364 2.60109 9.39797C2.49542 9.2923 2.43606 9.14897 2.43606 8.99953C2.43606 8.85009 2.49542 8.70677 2.60109 8.60109L7.64063 3.5625H4.125C3.97582 3.5625 3.83274 3.50324 3.72725 3.39775C3.62176 3.29226 3.5625 3.14918 3.5625 3C3.5625 2.85082 3.62176 2.70774 3.72725 2.60225C3.83274 2.49676 3.97582 2.4375 4.125 2.4375H9C9.14918 2.4375 9.29226 2.49676 9.39775 2.60225C9.50324 2.70774 9.5625 2.85082 9.5625 3Z" fill="var(--fill-0, #666661)"/>
</g>
</svg>
