<svg preserveAspectRatio="none" width="100%" height="100%" overflow="visible" style="display: block;" viewBox="0 0 24 24" fill="none" xmlns="http://www.w3.org/2000/svg">
<g id="Leading icon">
<path id="Vector" d="M15.7578 14.2578L14.9678 14.2578L14.6878 13.9878C15.6678 12.8478 16.2578 11.3678 16.2578 9.75781C16.2578 6.16781 13.3478 3.25781 9.75781 3.25781C6.16781 3.25781 3.25781 6.16781 3.25781 9.75781C3.25781 13.3478 6.16781 16.2578 9.75781 16.2578C11.3678 16.2578 12.8478 15.6678 13.9878 14.6878L14.2578 14.9678L14.2578 15.7578L19.2578 20.7478L20.7478 19.2578L15.7578 14.2578ZM9.75781 14.2578C7.26781 14.2578 5.25781 12.2478 5.25781 9.75781C5.25781 7.26781 7.26781 5.25781 9.75781 5.25781C12.2478 5.25781 14.2578 7.26781 14.2578 9.75781C14.2578 12.2478 12.2478 14.2578 9.75781 14.2578Z" fill="var(--fill-0, #666661)"/>
</g>
</svg>
