<svg preserveAspectRatio="none" width="100%" height="100%" overflow="visible" style="display: block;" viewBox="0 0 14 14" fill="none" xmlns="http://www.w3.org/2000/svg">
<g id="info">
<path id="Vector" d="M6.41667 4.08333H7.58333V5.25H6.41667V4.08333ZM6.41667 6.41667H7.58333V9.91667H6.41667V6.41667ZM7 1.16667C3.78 1.16667 1.16667 3.78 1.16667 7C1.16667 10.22 3.78 12.8333 7 12.8333C10.22 12.8333 12.8333 10.22 12.8333 7C12.8333 3.78 10.22 1.16667 7 1.16667ZM7 11.6667C4.4275 11.6667 2.33333 9.5725 2.33333 7C2.33333 4.4275 4.4275 2.33333 7 2.33333C9.5725 2.33333 11.6667 4.4275 11.6667 7C11.6667 9.5725 9.5725 11.6667 7 11.6667Z" fill="var(--fill-0, white)"/>
</g>
</svg>
