<svg preserveAspectRatio="none" width="100%" height="100%" overflow="visible" style="display: block;" viewBox="0 0 16 26" fill="none" xmlns="http://www.w3.org/2000/svg">
<g id="Frame">
<path id="Vector" d="M5.33333 12V10C5.33333 9.29276 5.61428 8.61448 6.11438 8.11438C6.61448 7.61428 7.29276 7.33333 8 7.33333C8.70724 7.33333 9.38552 7.61428 9.88562 8.11438C10.3857 8.61448 10.6667 9.29276 10.6667 10V12" stroke="var(--stroke-0, #666661)" stroke-width="1.33333"/>
<path id="Vector_2" d="M11.3333 12H4.66667C3.93029 12 3.33333 12.597 3.33333 13.3333V17.3333C3.33333 18.0697 3.93029 18.6667 4.66667 18.6667H11.3333C12.0697 18.6667 12.6667 18.0697 12.6667 17.3333V13.3333C12.6667 12.597 12.0697 12 11.3333 12Z" stroke="var(--stroke-0, #666661)" stroke-width="1.33333"/>
</g>
</svg>
