<svg preserveAspectRatio="none" width="100%" height="100%" overflow="visible" style="display: block;" viewBox="0 0 15 15" fill="none" xmlns="http://www.w3.org/2000/svg">
<g id="people">
<path id="Vector" d="M5.625 8.59375C4.1625 8.59375 1.25 9.325 1.25 10.7812V11.875H10V10.7812C10 9.325 7.0875 8.59375 5.625 8.59375ZM2.7125 10.625C3.2375 10.2625 4.50625 9.84375 5.625 9.84375C6.74375 9.84375 8.0125 10.2625 8.5375 10.625H2.7125ZM5.625 7.5C6.83125 7.5 7.8125 6.51875 7.8125 5.3125C7.8125 4.10625 6.83125 3.125 5.625 3.125C4.41875 3.125 3.4375 4.10625 3.4375 5.3125C3.4375 6.51875 4.41875 7.5 5.625 7.5ZM5.625 4.375C6.14375 4.375 6.5625 4.79375 6.5625 5.3125C6.5625 5.83125 6.14375 6.25 5.625 6.25C5.10625 6.25 4.6875 5.83125 4.6875 5.3125C4.6875 4.79375 5.10625 4.375 5.625 4.375ZM10.025 8.63125C10.75 9.15625 11.25 9.85625 11.25 10.7812V11.875H13.75V10.7812C13.75 9.51875 11.5625 8.8 10.025 8.63125ZM9.375 7.5C10.5812 7.5 11.5625 6.51875 11.5625 5.3125C11.5625 4.10625 10.5812 3.125 9.375 3.125C9.0375 3.125 8.725 3.20625 8.4375 3.34375C8.83125 3.9 9.0625 4.58125 9.0625 5.3125C9.0625 6.04375 8.83125 6.725 8.4375 7.28125C8.725 7.41875 9.0375 7.5 9.375 7.5Z" fill="var(--fill-0, #666661)"/>
</g>
</svg>
