<svg preserveAspectRatio="none" width="100%" height="100%" overflow="visible" style="display: block;" viewBox="0 0 22 22" fill="none" xmlns="http://www.w3.org/2000/svg">
<g id="Group 1">
<path id="Vector" d="M11 0C4.92508 0 0 4.92508 0 11C0 14.0379 1.23148 16.7879 3.2218 18.7782L1.12664 20.8734C0.710703 21.2893 1.00547 22 1.59328 22H11C17.0749 22 22 17.0749 22 11C22 4.92508 17.0749 0 11 0Z" fill="var(--fill-0, #FF4500)"/>
<path id="Vector_2" d="M17.2357 13.1948C18.6543 13.1948 19.8043 12.0448 19.8043 10.6262C19.8043 9.20751 18.6543 8.05748 17.2357 8.05748C15.817 8.05748 14.667 9.20751 14.667 10.6262C14.667 12.0448 15.817 13.1948 17.2357 13.1948Z" fill="url(#paint0_radial_0_105)"/>
<path id="Vector_3" d="M4.76447 13.1948C6.18311 13.1948 7.33314 12.0448 7.33314 10.6262C7.33314 9.20751 6.18311 8.05748 4.76447 8.05748C3.34583 8.05748 2.1958 9.20751 2.1958 10.6262C2.1958 12.0448 3.34583 13.1948 4.76447 13.1948Z" fill="url(#paint1_radial_0_105)"/>
<path id="Vector_4" d="M11.0059 18.3331C15.0558 18.3331 18.3389 15.8706 18.3389 12.8331C18.3389 9.79549 15.0558 7.33305 11.0059 7.33305C6.95597 7.33305 3.67285 9.79549 3.67285 12.8331C3.67285 15.8706 6.95597 18.3331 11.0059 18.3331Z" fill="url(#paint2_radial_0_105)"/>
<path id="Vector_5" d="M8.83773 12.2985C8.79476 13.2301 8.17601 13.5687 7.45671 13.5687C6.73741 13.5687 6.18741 13.0917 6.23038 12.1601C6.27335 11.2286 6.8921 10.6115 7.6114 10.6115C8.3307 10.6115 8.8807 11.3669 8.83773 12.2985Z" fill="var(--fill-0, #842123)"/>
<path id="Vector_6" d="M15.7816 12.1593C15.8245 13.0909 15.2754 13.5678 14.5552 13.5678C13.8351 13.5678 13.2163 13.2301 13.1742 12.2977C13.1313 11.3661 13.6804 10.6107 14.4006 10.6107C15.1207 10.6107 15.7395 11.2269 15.7816 12.1593Z" fill="var(--fill-0, #842123)"/>
<path id="Vector_7" d="M13.1741 12.3793C13.2145 13.2516 13.7929 13.5678 14.4666 13.5678C15.1404 13.5678 15.6543 13.0943 15.6139 12.222C15.5735 11.3498 14.9951 10.7791 14.3214 10.7791C13.6476 10.7791 13.1337 11.507 13.1741 12.3793Z" fill="url(#paint3_radial_0_105)"/>
<path id="Vector_8" d="M8.83896 12.3793C8.79857 13.2516 8.22021 13.5678 7.54646 13.5678C6.87271 13.5678 6.35881 13.0943 6.3992 12.222C6.43959 11.3498 7.01795 10.7791 7.6917 10.7791C8.36545 10.7791 8.87936 11.507 8.83896 12.3793Z" fill="url(#paint4_radial_0_105)"/>
<path id="Vector_9" d="M11.0058 14.19C10.0966 14.19 9.2252 14.2338 8.41911 14.3137C8.28161 14.3275 8.19395 14.4676 8.24723 14.593C8.6984 15.6509 9.76317 16.3943 11.0058 16.3943C12.2485 16.3943 13.3124 15.6509 13.7644 14.593C13.8177 14.4676 13.7309 14.3275 13.5925 14.3137C12.7865 14.2338 11.915 14.19 11.0058 14.19Z" fill="var(--fill-0, #BBCFDA)"/>
<path id="Vector_10" d="M11.0061 14.392C10.0995 14.392 9.23064 14.4366 8.42713 14.5183C8.28963 14.532 8.20283 14.6747 8.25611 14.8019C8.70643 15.877 9.76775 16.6315 11.0053 16.6315C12.2428 16.6315 13.3049 15.8761 13.7553 14.8019C13.8085 14.6747 13.7217 14.532 13.5842 14.5183C12.7807 14.4366 11.9119 14.392 11.0053 14.392H11.0061Z" fill="var(--fill-0, white)"/>
<path id="Vector_11" d="M11.0058 14.2871C10.1138 14.2871 9.25869 14.3309 8.46721 14.4109C8.33229 14.4246 8.24635 14.5647 8.29877 14.6902C8.74135 15.748 9.78635 16.4914 11.0058 16.4914C12.2253 16.4914 13.2694 15.748 13.7128 14.6902C13.7653 14.5647 13.6793 14.4246 13.5444 14.4109C12.7538 14.3309 11.8987 14.2871 11.0058 14.2871Z" fill="url(#paint5_radial_0_105)"/>
<path id="Vector_12" d="M15.0228 6.58541C16.028 6.58541 16.8429 5.77049 16.8429 4.76525C16.8429 3.76001 16.028 2.94509 15.0228 2.94509C14.0175 2.94509 13.2026 3.76001 13.2026 4.76525C13.2026 5.77049 14.0175 6.58541 15.0228 6.58541Z" fill="url(#paint6_radial_0_105)"/>
<path id="Vector_13" d="M10.9804 7.56507C10.7621 7.56507 10.5859 7.47398 10.5859 7.33304C10.5859 5.70195 11.9128 4.37593 13.543 4.37593C13.7613 4.37593 13.9375 4.55296 13.9375 4.77038C13.9375 4.98781 13.7605 5.16484 13.543 5.16484C12.3477 5.16484 11.3748 6.13765 11.3748 7.33304C11.3748 7.47398 11.1978 7.56507 10.9804 7.56507Z" fill="url(#paint7_radial_0_105)"/>
<path id="Vector_14" d="M8.35896 12.8107C8.35896 13.1484 7.99975 13.2997 7.55717 13.2997C7.11459 13.2997 6.75537 13.1484 6.75537 12.8107C6.75537 12.473 7.11459 12.1997 7.55717 12.1997C7.99975 12.1997 8.35896 12.473 8.35896 12.8107Z" fill="var(--fill-0, #FF6101)"/>
<path id="Vector_15" d="M15.2574 12.8107C15.2574 13.1484 14.8982 13.2997 14.4556 13.2997C14.013 13.2997 13.6538 13.1484 13.6538 12.8107C13.6538 12.473 14.013 12.1997 14.4556 12.1997C14.8982 12.1997 15.2574 12.473 15.2574 12.8107Z" fill="var(--fill-0, #FF6101)"/>
<path id="Vector_16" d="M8.111 11.8946C8.26857 11.8946 8.39631 11.7553 8.39631 11.5835C8.39631 11.4117 8.26857 11.2724 8.111 11.2724C7.95342 11.2724 7.82568 11.4117 7.82568 11.5835C7.82568 11.7553 7.95342 11.8946 8.111 11.8946Z" fill="var(--fill-0, #FFC49C)"/>
<path id="Vector_17" d="M14.8918 11.8946C15.0493 11.8946 15.1771 11.7553 15.1771 11.5835C15.1771 11.4117 15.0493 11.2724 14.8918 11.2724C14.7342 11.2724 14.6064 11.4117 14.6064 11.5835C14.6064 11.7553 14.7342 11.8946 14.8918 11.8946Z" fill="var(--fill-0, #FFC49C)"/>
</g>
<defs>
<radialGradient id="paint0_radial_0_105" cx="0" cy="0" r="1" gradientUnits="userSpaceOnUse" gradientTransform="translate(17.2745 9.2432) scale(5.14778 4.49062)">
<stop stop-color="#FEFFFF"/>
<stop offset="0.4" stop-color="#FEFFFF"/>
<stop offset="0.51" stop-color="#F9FCFC"/>
<stop offset="0.62" stop-color="#EDF3F5"/>
<stop offset="0.7" stop-color="#DEE9EC"/>
<stop offset="0.72" stop-color="#D8E4E8"/>
<stop offset="0.76" stop-color="#CCD8DF"/>
<stop offset="0.8" stop-color="#C8D5DD"/>
<stop offset="0.83" stop-color="#CCD6DE"/>
<stop offset="0.85" stop-color="#D8DBE2"/>
<stop offset="0.88" stop-color="#EDE3E9"/>
<stop offset="0.9" stop-color="#FFEBEF"/>
</radialGradient>
<radialGradient id="paint1_radial_0_105" cx="0" cy="0" r="1" gradientUnits="userSpaceOnUse" gradientTransform="translate(4.8033 9.2432) scale(5.14779 4.49062)">
<stop stop-color="#FEFFFF"/>
<stop offset="0.4" stop-color="#FEFFFF"/>
<stop offset="0.51" stop-color="#F9FCFC"/>
<stop offset="0.62" stop-color="#EDF3F5"/>
<stop offset="0.7" stop-color="#DEE9EC"/>
<stop offset="0.72" stop-color="#D8E4E8"/>
<stop offset="0.76" stop-color="#CCD8DF"/>
<stop offset="0.8" stop-color="#C8D5DD"/>
<stop offset="0.83" stop-color="#CCD6DE"/>
<stop offset="0.85" stop-color="#D8DBE2"/>
<stop offset="0.88" stop-color="#EDE3E9"/>
<stop offset="0.9" stop-color="#FFEBEF"/>
</radialGradient>
<radialGradient id="paint2_radial_0_105" cx="0" cy="0" r="1" gradientUnits="userSpaceOnUse" gradientTransform="translate(11.2016 8.52294) scale(15.5278 10.9025)">
<stop stop-color="#FEFFFF"/>
<stop offset="0.4" stop-color="#FEFFFF"/>
<stop offset="0.51" stop-color="#F9FCFC"/>
<stop offset="0.62" stop-color="#EDF3F5"/>
<stop offset="0.7" stop-color="#DEE9EC"/>
<stop offset="0.72" stop-color="#D8E4E8"/>
<stop offset="0.76" stop-color="#CCD8DF"/>
<stop offset="0.8" stop-color="#C8D5DD"/>
<stop offset="0.83" stop-color="#CCD6DE"/>
<stop offset="0.85" stop-color="#D8DBE2"/>
<stop offset="0.88" stop-color="#EDE3E9"/>
<stop offset="0.9" stop-color="#FFEBEF"/>
</radialGradient>
<radialGradient id="paint3_radial_0_105" cx="0" cy="0" r="1" gradientUnits="userSpaceOnUse" gradientTransform="translate(14.2036 12.9741) rotate(180) scale(1.29735 1.90462)">
<stop stop-color="#FF6600"/>
<stop offset="0.5" stop-color="#FF4500"/>
<stop offset="0.7" stop-color="#FC4301"/>
<stop offset="0.82" stop-color="#F43F07"/>
<stop offset="0.92" stop-color="#E53812"/>
<stop offset="1" stop-color="#D4301F"/>
</radialGradient>
<radialGradient id="paint4_radial_0_105" cx="0" cy="0" r="1" gradientUnits="userSpaceOnUse" gradientTransform="translate(7.75104 12.9741) scale(1.29735 1.90462)">
<stop stop-color="#FF6600"/>
<stop offset="0.5" stop-color="#FF4500"/>
<stop offset="0.7" stop-color="#FC4301"/>
<stop offset="0.82" stop-color="#F43F07"/>
<stop offset="0.92" stop-color="#E53812"/>
<stop offset="1" stop-color="#D4301F"/>
</radialGradient>
<radialGradient id="paint5_radial_0_105" cx="0" cy="0" r="1" gradientUnits="userSpaceOnUse" gradientTransform="translate(11.0315 16.7499) scale(4.57464 3.01732)">
<stop stop-color="#172E35"/>
<stop offset="0.29" stop-color="#0E1C21"/>
<stop offset="0.73" stop-color="#030708"/>
<stop offset="1"/>
</radialGradient>
<radialGradient id="paint6_radial_0_105" cx="0" cy="0" r="1" gradientUnits="userSpaceOnUse" gradientTransform="translate(15.066 2.93101) scale(4.01564)">
<stop stop-color="#FEFFFF"/>
<stop offset="0.4" stop-color="#FEFFFF"/>
<stop offset="0.51" stop-color="#F9FCFC"/>
<stop offset="0.62" stop-color="#EDF3F5"/>
<stop offset="0.7" stop-color="#DEE9EC"/>
<stop offset="0.72" stop-color="#D8E4E8"/>
<stop offset="0.76" stop-color="#CCD8DF"/>
<stop offset="0.8" stop-color="#C8D5DD"/>
<stop offset="0.83" stop-color="#CCD6DE"/>
<stop offset="0.85" stop-color="#D8DBE2"/>
<stop offset="0.88" stop-color="#EDE3E9"/>
<stop offset="0.9" stop-color="#FFEBEF"/>
</radialGradient>
<radialGradient id="paint7_radial_0_105" cx="0" cy="0" r="1" gradientUnits="userSpaceOnUse" gradientTransform="translate(13.3927 7.30863) scale(3.29143 3.29143)">
<stop offset="0.48" stop-color="#7A9299"/>
<stop offset="0.67" stop-color="#172E35"/>
<stop offset="0.75"/>
<stop offset="0.82" stop-color="#172E35"/>
</radialGradient>
</defs>
</svg>
