<svg preserveAspectRatio="none" width="100%" height="100%" overflow="visible" style="display: block;" viewBox="0 0 40 40" fill="none" xmlns="http://www.w3.org/2000/svg">
<g id="HeartStraight">
<rect width="40" height="40" rx="8" fill="var(--fill-0, #F2F2ED)"/>
<path id="Vector" d="M32 15.8487C32.0018 16.6817 31.8418 17.5067 31.5292 18.2762C31.2166 19.0456 30.7575 19.7441 30.1787 20.3314L20.6116 30.2391C20.5319 30.3217 20.4368 30.3873 20.332 30.4321C20.2271 30.4769 20.1146 30.5 20.001 30.5C19.8873 30.5 19.7748 30.4769 19.6699 30.4321C19.5651 30.3873 19.47 30.3217 19.3903 30.2391L9.82322 20.3314C8.65684 19.1425 8.00101 17.5295 8 15.8471C7.999 14.1648 8.6529 12.551 9.81786 11.3606C10.9828 10.1703 12.5634 9.50103 14.2119 9.5C15.8604 9.49898 17.4418 10.1663 18.6082 11.3552L20.001 12.6836L21.4033 11.3508C22.2738 10.4669 23.3812 9.86606 24.586 9.62403C25.7908 9.382 27.0388 9.50966 28.1725 9.99089C29.3063 10.4721 30.2749 11.2854 30.9561 12.3279C31.6373 13.3705 32.0005 14.5956 32 15.8487Z" fill="var(--fill-0, #00803E)"/>
</g>
</svg>
