<svg preserveAspectRatio="none" width="100%" height="100%" overflow="visible" style="display: block;" viewBox="0 0 40 40" fill="none" xmlns="http://www.w3.org/2000/svg">
<g id="ChatCircleDots">
<path id="Vector" d="M21.3846 19.9962C21.3846 20.2701 21.3034 20.5378 21.1513 20.7656C20.9991 20.9933 20.7829 21.1708 20.5299 21.2756C20.2769 21.3804 19.9985 21.4078 19.7299 21.3544C19.4613 21.3009 19.2146 21.1691 19.0209 20.9754C18.8273 20.7817 18.6954 20.535 18.642 20.2664C18.5886 19.9978 18.616 19.7193 18.7208 19.4663C18.8256 19.2133 19.0031 18.997 19.2307 18.8449C19.4584 18.6927 19.7261 18.6115 20 18.6115C20.3672 18.6115 20.7194 18.7574 20.9791 19.0171C21.2387 19.2768 21.3846 19.629 21.3846 19.9962ZM14.9231 18.6115C14.6492 18.6115 14.3815 18.6927 14.1538 18.8449C13.9261 18.997 13.7487 19.2133 13.6439 19.4663C13.5391 19.7193 13.5116 19.9978 13.5651 20.2664C13.6185 20.535 13.7504 20.7817 13.944 20.9754C14.1376 21.1691 14.3844 21.3009 14.653 21.3544C14.9215 21.4078 15.1999 21.3804 15.4529 21.2756C15.706 21.1708 15.9222 20.9933 16.0743 20.7656C16.2265 20.5378 16.3077 20.2701 16.3077 19.9962C16.3077 19.629 16.1618 19.2768 15.9021 19.0171C15.6425 18.7574 15.2903 18.6115 14.9231 18.6115ZM25.0769 18.6115C24.8031 18.6115 24.5354 18.6927 24.3077 18.8449C24.08 18.997 23.9025 19.2133 23.7977 19.4663C23.6929 19.7193 23.6655 19.9978 23.7189 20.2664C23.7723 20.535 23.9042 20.7817 24.0979 20.9754C24.2915 21.1691 24.5382 21.3009 24.8068 21.3544C25.0754 21.4078 25.3538 21.3804 25.6068 21.2756C25.8598 21.1708 26.076 20.9933 26.2282 20.7656C26.3803 20.5378 26.4615 20.2701 26.4615 19.9962C26.4615 19.629 26.3157 19.2768 26.056 19.0171C25.7963 18.7574 25.4441 18.6115 25.0769 18.6115ZM32 19.9962C32.0005 22.0682 31.4645 24.105 30.4444 25.9083C29.4242 27.7117 27.9546 29.2202 26.1785 30.287C24.4024 31.3538 22.3805 31.9426 20.3094 31.996C18.2383 32.0494 16.1887 31.5657 14.36 30.5919L10.4312 31.9016C10.1059 32.0101 9.7568 32.0258 9.42307 31.9471C9.08934 31.8683 8.78414 31.6981 8.54167 31.4557C8.29921 31.2132 8.12906 30.9079 8.0503 30.5742C7.97155 30.2404 7.98729 29.8913 8.09577 29.566L9.40538 25.6368C8.5494 24.0273 8.0713 22.2439 8.00738 20.422C7.94346 18.6001 8.29539 16.7876 9.03646 15.1221C9.77754 13.4565 10.8883 11.9817 12.2844 10.8096C13.6805 9.63743 15.3252 8.79878 17.0938 8.35728C18.8623 7.91577 20.7082 7.88301 22.4913 8.26149C24.2745 8.63997 25.9479 9.41973 27.3847 10.5416C28.8215 11.6635 29.9839 13.0979 30.7836 14.7361C31.5832 16.3743 31.9993 18.1732 32 19.9962ZM30.1538 19.9962C30.1534 18.4385 29.7946 16.9018 29.1053 15.505C28.416 14.1081 27.4146 12.8886 26.1786 11.9407C24.9426 10.9929 23.5052 10.3421 21.9774 10.0387C20.4497 9.73536 18.8727 9.78756 17.3683 10.1913C15.864 10.595 14.4727 11.3394 13.3021 12.3669C12.1315 13.3945 11.2129 14.6776 10.6175 16.1169C10.022 17.5563 9.76564 19.1134 9.86819 20.6677C9.97073 22.222 10.4295 23.7319 11.2088 25.0806C11.2743 25.1938 11.3149 25.3196 11.328 25.4497C11.3411 25.5798 11.3265 25.7112 11.285 25.8352L9.84615 30.151L14.1615 28.7121C14.2555 28.68 14.3542 28.6636 14.4535 28.6636C14.6156 28.6639 14.7748 28.7069 14.915 28.7882C16.4586 29.6814 18.2102 30.1523 19.9936 30.1534C21.7769 30.1545 23.5292 29.6859 25.0739 28.7946C26.6186 27.9034 27.9014 26.621 28.7932 25.0765C29.685 23.5319 30.1543 21.7798 30.1538 19.9962Z" fill="var(--fill-0, #050500)"/>
</g>
</svg>
