<svg preserveAspectRatio="none" width="100%" height="100%" overflow="visible" style="display: block;" viewBox="0 0 14 13.5" fill="none" xmlns="http://www.w3.org/2000/svg">
<g id="Container">
<path id="Icon" d="M3.25 13.5C2.8375 13.5 2.48437 13.3531 2.19062 13.0594C1.89687 12.7656 1.75 12.4125 1.75 12V2.25H1V0.75H4.75V0H9.25V0.75H13V2.25H12.25V12C12.25 12.4125 12.1031 12.7656 11.8094 13.0594C11.5156 13.3531 11.1625 13.5 10.75 13.5H3.25V13.5M10.75 2.25H3.25V12V12V12H10.75V12V12V2.25V2.25M4.75 10.5H6.25V3.75H4.75V10.5V10.5M7.75 10.5H9.25V3.75H7.75V10.5V10.5M3.25 2.25V2.25V12V12V12V12V12V12V2.25V2.25" fill="var(--fill-0, #666661)"/>
</g>
</svg>
