<svg preserveAspectRatio="none" width="100%" height="100%" overflow="visible" style="display: block;" viewBox="0 0 20 23.6252" fill="none" xmlns="http://www.w3.org/2000/svg">
<g id="Warning">
<path id="Vector" d="M18.2508 16.8196L11.4188 4.95474C11.2481 4.66406 11.0044 4.42303 10.7118 4.25557C10.4192 4.0881 10.0879 4 9.75084 4C9.41373 4 9.08247 4.0881 8.78989 4.25557C8.49732 4.42303 8.25359 4.66406 8.08287 4.95474L1.25084 16.8196C1.08657 17.1007 1 17.4205 1 17.7461C1 18.0718 1.08657 18.3915 1.25084 18.6727C1.41938 18.9651 1.66269 19.2075 1.95581 19.3748C2.24893 19.5422 2.58129 19.6286 2.91881 19.6251H16.5829C16.9201 19.6283 17.2522 19.5418 17.545 19.3744C17.8378 19.2071 18.0809 18.9649 18.2493 18.6727C18.4138 18.3917 18.5006 18.072 18.5009 17.7464C18.5012 17.4207 18.4149 17.1009 18.2508 16.8196ZM17.1672 18.0469C17.1077 18.1485 17.0222 18.2325 16.9195 18.2901C16.8168 18.3478 16.7006 18.3771 16.5829 18.3751H2.91881C2.80105 18.3771 2.68488 18.3478 2.58219 18.2901C2.4795 18.2325 2.39399 18.1485 2.33443 18.0469C2.28048 17.9556 2.25202 17.8514 2.25202 17.7454C2.25202 17.6393 2.28048 17.5351 2.33443 17.4438L9.16646 5.57896C9.22723 5.47784 9.31312 5.39417 9.4158 5.33608C9.51847 5.278 9.63443 5.24747 9.7524 5.24747C9.87037 5.24747 9.98633 5.278 10.089 5.33608C10.1917 5.39417 10.2776 5.47784 10.3383 5.57896L17.1704 17.4438C17.2238 17.5354 17.2518 17.6397 17.2512 17.7458C17.2507 17.8519 17.2217 17.9559 17.1672 18.0469ZM9.12584 13.3751V10.2501C9.12584 10.0843 9.19169 9.92532 9.3089 9.80811C9.42611 9.6909 9.58508 9.62505 9.75084 9.62505C9.9166 9.62505 10.0756 9.6909 10.1928 9.80811C10.31 9.92532 10.3758 10.0843 10.3758 10.2501V13.3751C10.3758 13.5408 10.31 13.6998 10.1928 13.817C10.0756 13.9342 9.9166 14.0001 9.75084 14.0001C9.58508 14.0001 9.42611 13.9342 9.3089 13.817C9.19169 13.6998 9.12584 13.5408 9.12584 13.3751ZM10.6883 16.1876C10.6883 16.373 10.6334 16.5542 10.5303 16.7084C10.4273 16.8626 10.2809 16.9827 10.1096 17.0537C9.9383 17.1246 9.7498 17.1432 9.56794 17.107C9.38608 17.0709 9.21904 16.9816 9.08793 16.8505C8.95681 16.7194 8.86753 16.5523 8.83135 16.3704C8.79518 16.1886 8.81374 16.0001 8.8847 15.8288C8.95566 15.6575 9.07582 15.5111 9.22999 15.408C9.38416 15.305 9.56542 15.2501 9.75084 15.2501C9.99948 15.2501 10.2379 15.3488 10.4138 15.5246C10.5896 15.7005 10.6883 15.9389 10.6883 16.1876Z" fill="var(--fill-0, #AE0D00)"/>
</g>
</svg>
