<svg preserveAspectRatio="none" width="100%" height="100%" overflow="visible" style="display: block;" viewBox="0 0 20 20" fill="none" xmlns="http://www.w3.org/2000/svg">
<g id="Star">
<path id="Vector" d="M5.3863 16.84L5.42048 16.7862H5.4195L5.3863 16.84L5.38435 16.8429M5.3863 16.84L5.38435 16.8429M5.38435 16.8429L5.38239 16.8448H5.38337L5.38435 16.8429ZM14.6256 16.8351L14.6451 16.8312L14.6217 16.8409M14.6451 16.8312L14.6217 16.8409L14.6256 16.8351M14.6451 16.8312L14.6256 16.8351L14.6217 16.8409M10.0006 1.1505C10.2738 1.15053 10.5412 1.2317 10.7681 1.3839C10.995 1.53609 11.1712 1.75229 11.275 2.00499L13.0318 6.25206L17.5797 6.61925C17.851 6.64113 18.1101 6.74259 18.3238 6.91124C18.5375 7.08 18.6966 7.30853 18.7808 7.56749L18.8092 7.66612C18.8662 7.89762 18.8622 8.14055 18.7974 8.3712C18.7234 8.63484 18.573 8.87097 18.3648 9.04894L14.8951 12.0421L15.9566 16.5196C16.0199 16.7848 16.0031 17.0628 15.9088 17.3185C15.8144 17.5742 15.6467 17.7967 15.4263 17.9571C15.206 18.1176 14.9428 18.2085 14.6705 18.2198C14.3983 18.2312 14.1289 18.1621 13.8961 18.0206H13.8951L9.99958 15.6232L6.107 18.0206C5.87417 18.1638 5.60378 18.2343 5.33064 18.2237C5.05756 18.2132 4.79385 18.1218 4.57282 17.961C4.35171 17.8002 4.18265 17.5771 4.08845 17.3204C3.99437 17.0639 3.97904 16.7851 4.04353 16.5196L5.10017 12.0431L1.63044 9.04894C1.42418 8.87075 1.2751 8.63566 1.20173 8.37316C1.12838 8.11049 1.13416 7.83177 1.21833 7.57237C1.30257 7.31292 1.46165 7.0837 1.67536 6.91417C1.88899 6.74477 2.14784 6.64227 2.4195 6.61925H2.42048L6.97028 6.25109L8.72517 2.00499L8.76814 1.91222C8.87456 1.69933 9.03435 1.5171 9.23298 1.3839C9.46 1.23167 9.72722 1.1505 10.0006 1.1505ZM8.13923 7.21495C8.08873 7.33805 8.00519 7.44469 7.89802 7.52355C7.79068 7.60245 7.66355 7.65076 7.53083 7.66222H7.52985L2.69489 8.05187L6.38239 11.2325C6.48304 11.3193 6.55828 11.4323 6.59919 11.5587C6.64005 11.685 6.64543 11.8202 6.61482 11.9493L5.48884 16.6964L9.62067 14.1544C9.73467 14.0844 9.86581 14.0471 9.99958 14.047C10.1335 14.047 10.2653 14.0843 10.3795 14.1544L14.5103 16.6944L13.3853 11.9484C13.3546 11.8191 13.36 11.6832 13.4009 11.5567C13.4419 11.4305 13.5172 11.3182 13.6177 11.2316L17.3052 8.04991L12.4722 7.66026C12.3392 7.64948 12.2119 7.60216 12.1041 7.52355C11.9962 7.44492 11.9119 7.3383 11.8609 7.21495L9.99763 2.71495L8.13923 7.21495Z" fill="var(--fill-0, #666661)" stroke="var(--stroke-0, #666661)" stroke-width="0.2"/>
</g>
</svg>
