<svg preserveAspectRatio="none" width="100%" height="100%" overflow="visible" style="display: block;" viewBox="0 0 14.4 12.4" fill="none" xmlns="http://www.w3.org/2000/svg">
<path id="Vector" d="M3.81914 0.100391C4.80692 0.0990064 5.7554 0.489211 6.45488 1.18633H6.45391L7.20195 1.88262L7.95195 1.18633C8.65133 0.493897 9.59636 0.106025 10.5809 0.107227C11.5666 0.108451 12.5119 0.499383 13.2098 1.19512L13.3367 1.32891C13.9551 2.01172 14.2995 2.90156 14.2996 3.82695C14.2996 4.81371 13.9075 5.75977 13.2098 6.45781L7.63262 12.1209C7.57683 12.1775 7.51062 12.223 7.4373 12.2537C7.36392 12.2844 7.28444 12.2996 7.20488 12.2996C7.12547 12.2996 7.04669 12.2844 6.97344 12.2537C6.90009 12.223 6.83393 12.1775 6.77813 12.1209L1.19414 6.45879V6.45781C0.495159 5.76071 0.101775 4.81491 0.100391 3.82793C0.0990349 2.84061 0.489802 1.89325 1.1873 1.19414C1.88477 0.495081 2.83143 0.101861 3.81914 0.100391ZM3.82793 1.30254C3.15827 1.30254 2.5153 1.56854 2.0418 2.0418C1.56847 2.51503 1.30254 3.15684 1.30254 3.82598C1.30255 4.49511 1.56846 5.13693 2.0418 5.61016L2.04277 5.61113L7.20195 10.8416L12.3396 5.63359L12.3602 5.61309C12.834 5.14015 13.0999 4.49815 13.1004 3.82891C13.1008 3.15964 12.8353 2.51733 12.3621 2.04375C11.8889 1.57028 11.2465 1.30397 10.577 1.30352C9.90747 1.30316 9.26553 1.56899 8.7918 2.0418L8.7791 2.05449L8.77617 2.05645L7.61113 3.14043C7.50011 3.2437 7.3536 3.30059 7.20195 3.30059C7.0505 3.30053 6.90469 3.24351 6.79375 3.14043L5.62773 2.05645L5.61309 2.0418C5.13968 1.56864 4.49743 1.30265 3.82793 1.30254Z" fill="var(--fill-0, #666661)" stroke="var(--stroke-0, white)" stroke-width="0.2"/>
</svg>
