<svg preserveAspectRatio="none" width="100%" height="100%" overflow="visible" style="display: block;" viewBox="0 0 17.5 16.6667" fill="none" xmlns="http://www.w3.org/2000/svg">
<g id="Container">
<path id="Icon" d="M4.16667 0H13.3333V10.8333L7.5 16.6667L6.45833 15.625C6.36111 15.5278 6.28125 15.3958 6.21875 15.2292C6.15625 15.0625 6.125 14.9028 6.125 14.75V14.4583L7.04167 10.8333H1.66667C1.22222 10.8333 0.833333 10.6667 0.5 10.3333C0.166667 10 0 9.61111 0 9.16667V7.5C0 7.40278 0.0138889 7.29861 0.0416667 7.1875C0.0694444 7.07639 0.0972222 6.97222 0.125 6.875L2.625 1C2.75 0.722222 2.95833 0.486111 3.25 0.291667C3.54167 0.0972222 3.84722 0 4.16667 0V0M11.6667 1.66667H4.16667V1.66667V1.66667L1.66667 7.5V9.16667V9.16667V9.16667H9.16667L8.04167 13.75L11.6667 10.125V1.66667V1.66667M11.6667 10.125V10.125V9.16667V9.16667V9.16667V9.16667V7.5V1.66667V1.66667V1.66667V1.66667V10.125V10.125M13.3333 10.8333V9.16667H15.8333V1.66667H13.3333V0H17.5V10.8333H13.3333V10.8333" fill="var(--fill-0, #666661)"/>
</g>
</svg>
