<svg preserveAspectRatio="none" width="100%" height="100%" overflow="visible" style="display: block;" viewBox="0 0 40 40" fill="none" xmlns="http://www.w3.org/2000/svg">
<g id="HeartStraight">
<path id="Vector" d="M30.1814 11.3659C29.017 10.1809 27.44 9.51447 25.7954 9.51242C24.1508 9.51037 22.5723 10.1729 21.405 11.355L20.0037 12.6831L18.6014 11.3506C17.4344 10.1633 15.853 9.49765 14.205 9.50001C12.5571 9.50236 10.9775 10.1726 9.81381 11.3632C8.65014 12.5538 7.9977 14.1674 8.00001 15.8488C8.00232 17.5303 8.65919 19.1419 9.82613 20.3292L19.3984 30.2391C19.4782 30.3217 19.5732 30.3874 19.6781 30.4321C19.7829 30.4769 19.8954 30.5 20.0091 30.5C20.1228 30.5 20.2353 30.4769 20.3401 30.4321C20.4449 30.3874 20.54 30.3217 20.6198 30.2391L30.1814 20.3292C31.3459 19.1404 32 17.5284 32 15.8476C32 14.1668 31.3459 12.5548 30.1814 11.3659ZM28.9654 19.1006L20.0037 28.3743L11.0367 19.0919C10.1929 18.2308 9.71877 17.0631 9.71877 15.8454C9.71877 14.6277 10.1929 13.46 11.0367 12.5989C11.8806 11.7379 13.0252 11.2542 14.2186 11.2542C15.412 11.2542 16.5565 11.7379 17.4004 12.5989L17.4218 12.6208L19.4199 14.5173C19.5785 14.6679 19.7871 14.7516 20.0037 14.7516C20.2204 14.7516 20.429 14.6679 20.5876 14.5173L22.5856 12.6208L22.6071 12.5989C23.4515 11.7385 24.5964 11.2556 25.7898 11.2564C26.9832 11.2572 28.1274 11.7417 28.9708 12.6033C29.8141 13.4649 30.2874 14.633 30.2866 15.8507C30.2858 17.0683 29.8109 18.2358 28.9665 19.0962L28.9654 19.1006Z" fill="var(--fill-0, #050500)"/>
</g>
</svg>
