<svg preserveAspectRatio="none" width="100%" height="100%" overflow="visible" style="display: block;" viewBox="0 0 20 20" fill="none" xmlns="http://www.w3.org/2000/svg">
<g id="Star">
<path id="Vector" d="M9.9981 1.50089C10.2018 1.5009 10.4011 1.56132 10.5704 1.67472C10.7397 1.78827 10.8718 1.94996 10.9493 2.13859V2.13956L12.7266 6.4423L12.7852 6.5839L12.9375 6.59562L17.5459 6.96671V6.96769C17.7491 6.98487 17.9429 7.06171 18.1026 7.18839C18.2623 7.31511 18.3814 7.48664 18.4444 7.68058C18.5072 7.8744 18.5109 8.08296 18.4561 8.27921C18.4012 8.47535 18.29 8.65097 18.1358 8.78409L17.461 9.36612L17.4659 9.36515L14.625 11.8173L14.5098 11.9159L14.545 12.0634L15.6163 16.6005V16.6015C15.6638 16.7997 15.6516 17.0079 15.5811 17.1991C15.5106 17.3902 15.3845 17.5559 15.2198 17.6757C15.0551 17.7955 14.8588 17.8637 14.6553 17.872C14.4516 17.8802 14.2492 17.8279 14.0752 17.7216H14.0743L10.1309 15.2939L10 15.2138L9.86919 15.2939L5.9229 17.7216C5.74899 17.8273 5.54714 17.8795 5.3438 17.871C5.14051 17.8625 4.94382 17.7935 4.77935 17.6737C4.61502 17.554 4.48941 17.388 4.41899 17.1972C4.36623 17.0541 4.34632 16.9016 4.35942 16.7509L4.38384 16.6005L5.45903 12.0644L5.49419 11.9159L5.37895 11.8173L1.86333 8.78312C1.70954 8.6501 1.59786 8.47501 1.54302 8.27921C1.48821 8.0833 1.49227 7.87515 1.55474 7.68155C1.61731 7.48785 1.73639 7.31626 1.89556 7.18937C2.05463 7.06269 2.24767 6.98552 2.45024 6.96769L2.44927 6.96671L7.05767 6.59562L7.21001 6.5839L7.2686 6.4423L9.04692 2.13956V2.13859C9.12435 1.94997 9.25649 1.78827 9.42583 1.67472C9.5951 1.56134 9.79435 1.50089 9.9981 1.50089Z" fill="url(#paint0_linear_0_212)" stroke="var(--stroke-0, #050500)" stroke-width="0.5"/>
</g>
<defs>
<linearGradient id="paint0_linear_0_212" x1="9.99984" y1="1.25089" x2="9.99984" y2="18.1232" gradientUnits="userSpaceOnUse">
<stop stop-color="#D2EBE3"/>
<stop offset="1" stop-color="#FFF6DC"/>
</linearGradient>
</defs>
</svg>
