<svg preserveAspectRatio="none" width="100%" height="100%" overflow="visible" style="display: block;" viewBox="0 0 18 18" fill="none" xmlns="http://www.w3.org/2000/svg">
<g id="Link">
<path id="Vector" d="M16.875 6.20367C16.8468 7.18288 16.4441 8.11399 15.75 8.80524L13.3066 11.25C12.9508 11.6078 12.5275 11.8915 12.0612 12.0846C11.595 12.2777 11.0951 12.3764 10.5905 12.375H10.587C10.0737 12.3746 9.56572 12.2714 9.09302 12.0714C8.62033 11.8715 8.19251 11.5788 7.83483 11.2107C7.47715 10.8426 7.19687 10.4065 7.01054 9.92828C6.82422 9.45004 6.73562 8.93931 6.75 8.42625C6.7542 8.27707 6.81748 8.13566 6.92594 8.03314C7.03439 7.93061 7.17914 7.87538 7.32832 7.87957C7.4775 7.88377 7.61891 7.94705 7.72143 8.05551C7.82396 8.16397 7.87919 8.30871 7.875 8.45789C7.86476 8.82065 7.92733 9.18179 8.05903 9.51995C8.19072 9.85812 8.38887 10.1665 8.64175 10.4267C8.89463 10.687 9.19712 10.894 9.53135 11.0354C9.86557 11.1768 10.2247 11.2498 10.5877 11.25C10.9444 11.2509 11.2978 11.1811 11.6274 11.0446C11.957 10.9081 12.2562 10.7076 12.5079 10.4548L14.9512 8.01141C15.4554 7.50094 15.737 6.81177 15.7348 6.09434C15.7326 5.37692 15.4466 4.68952 14.9393 4.18222C14.432 3.67492 13.7446 3.38893 13.0271 3.38668C12.3097 3.38444 11.6205 3.66612 11.1101 4.17023L10.3366 4.94367C10.2303 5.04471 10.0887 5.1002 9.942 5.09833C9.79533 5.09645 9.65518 5.03735 9.55146 4.93362C9.44773 4.82989 9.38863 4.68975 9.38675 4.54307C9.38487 4.39639 9.44037 4.25478 9.54141 4.14844L10.3148 3.375C10.6717 3.01804 11.0953 2.73488 11.5616 2.54169C12.0279 2.3485 12.5277 2.24907 13.0324 2.24907C13.5371 2.24907 14.0369 2.3485 14.5032 2.54169C14.9695 2.73488 15.3932 3.01804 15.75 3.375C16.1196 3.74552 16.4099 4.18737 16.6033 4.67366C16.7967 5.15996 16.8892 5.68052 16.875 6.20367ZM7.66406 13.0542L6.89062 13.8277C6.63836 14.0816 6.33813 14.2829 6.00739 14.4197C5.67665 14.5566 5.322 14.6264 4.96406 14.625C4.42709 14.6246 3.90229 14.465 3.45597 14.1664C3.00966 13.8678 2.66186 13.4437 2.45652 12.9475C2.25118 12.4513 2.19751 11.9055 2.30229 11.3788C2.40708 10.8521 2.66561 10.3684 3.04523 9.98859L5.48437 7.54523C5.86855 7.15903 6.35998 6.89726 6.89484 6.79394C7.42969 6.69061 7.98326 6.75049 8.48365 6.96581C8.98403 7.18113 9.40811 7.54193 9.70081 8.00136C9.99351 8.46078 10.1413 8.99761 10.125 9.54211C10.1208 9.69129 10.176 9.83604 10.2786 9.94449C10.3811 10.0529 10.5225 10.1162 10.6717 10.1204C10.8209 10.1246 10.9656 10.0694 11.0741 9.96686C11.1825 9.86434 11.2458 9.72294 11.25 9.57375C11.2635 9.05142 11.1707 8.53179 10.9774 8.04639C10.784 7.56099 10.494 7.11994 10.125 6.75C9.40442 6.02974 8.4273 5.62512 7.40848 5.62512C6.38965 5.62512 5.41253 6.02974 4.69195 6.75L2.25 9.19336C1.71297 9.73017 1.34713 10.4141 1.19869 11.1588C1.05026 11.9034 1.1259 12.6754 1.41606 13.3771C1.70622 14.0788 2.19787 14.6787 2.82888 15.1011C3.45989 15.5234 4.20194 15.7492 4.96125 15.75C5.466 15.7515 5.96603 15.6528 6.43239 15.4597C6.89874 15.2666 7.32216 14.9829 7.67812 14.625L8.45156 13.8516C8.54259 13.7443 8.59015 13.6069 8.58486 13.4663C8.57956 13.3258 8.5218 13.1923 8.42296 13.0922C8.32413 12.9922 8.19138 12.9328 8.0509 12.9257C7.91043 12.9187 7.77241 12.9645 7.66406 13.0542Z" fill="var(--fill-0, #666661)"/>
</g>
</svg>
