<svg preserveAspectRatio="none" width="100%" height="100%" overflow="visible" style="display: block;" viewBox="0 0 20 20" fill="none" xmlns="http://www.w3.org/2000/svg">
<g id="ShootingStar">
<path id="Vector" d="M18.6992 5.475C18.6356 5.27634 18.514 5.1012 18.3502 4.97204C18.1864 4.84288 17.9877 4.76556 17.7797 4.75L14.8938 4.52188L13.7836 1.89219C13.7025 1.70176 13.5672 1.53937 13.3946 1.42523C13.2219 1.31109 13.0195 1.25023 12.8125 1.25023C12.6055 1.25023 12.4031 1.31109 12.2304 1.42523C12.0578 1.53937 11.9225 1.70176 11.8414 1.89219L10.7312 4.52188L7.84531 4.75C7.63808 4.76527 7.44008 4.84191 7.27658 4.97016C7.11307 5.0984 6.99147 5.27243 6.92727 5.47007C6.86306 5.6677 6.85918 5.87997 6.9161 6.07982C6.97302 6.27967 7.08818 6.45804 7.24688 6.59219L9.43906 8.44219L8.77031 11.207C8.72167 11.4073 8.73357 11.6174 8.8045 11.8109C8.87544 12.0044 9.00221 12.1724 9.16875 12.2937C9.33684 12.4177 9.53791 12.4889 9.74651 12.4985C9.95511 12.5081 10.1619 12.4556 10.3406 12.3477L12.8125 10.8594L15.2852 12.3484C15.464 12.4561 15.6707 12.5084 15.8793 12.4988C16.0878 12.4892 16.2888 12.4181 16.457 12.2945C16.6233 12.173 16.7498 12.0048 16.8205 11.8114C16.8913 11.618 16.9032 11.408 16.8547 11.2078L16.1859 8.44297L18.3781 6.59297C18.5369 6.45977 18.6522 6.28221 18.7095 6.08304C18.7667 5.88386 18.7631 5.67214 18.6992 5.475ZM15.0844 7.73438C14.9957 7.80933 14.9296 7.9075 14.8936 8.0179C14.8576 8.12829 14.853 8.24654 14.8805 8.35938L15.5273 11.032L13.1352 9.59375C13.0379 9.5352 12.9264 9.50426 12.8129 9.50426C12.6993 9.50426 12.5879 9.5352 12.4906 9.59375L10.0984 11.0336L10.7453 8.35938C10.7726 8.24647 10.768 8.12818 10.7318 8.01778C10.6957 7.90738 10.6295 7.80924 10.5406 7.73438L8.4375 5.95781L11.2125 5.73828C11.3267 5.72922 11.4362 5.68894 11.5291 5.62184C11.622 5.55474 11.6946 5.4634 11.7391 5.35781L12.8125 2.80547L13.8898 5.35781C13.9343 5.4634 14.0069 5.55474 14.0998 5.62184C14.1927 5.68894 14.3022 5.72922 14.4164 5.73828L17.1922 5.95781L15.0844 7.73438ZM6.88125 9.62344L2.31719 14.1922C2.19991 14.3095 2.04085 14.3753 1.875 14.3753C1.70915 14.3753 1.55009 14.3095 1.43281 14.1922C1.31554 14.0749 1.24965 13.9159 1.24965 13.75C1.24965 13.5841 1.31554 13.4251 1.43281 13.3078L5.99922 8.74141C6.11649 8.62413 6.27555 8.55825 6.44141 8.55825C6.60726 8.55825 6.76632 8.62413 6.88359 8.74141C7.00087 8.85868 7.06675 9.01774 7.06675 9.18359C7.06675 9.34945 7.00087 9.50851 6.88359 9.62578L6.88125 9.62344ZM7.72578 13.5195C7.8429 13.6367 7.90869 13.7956 7.90869 13.9613C7.90869 14.127 7.8429 14.2859 7.72578 14.4031L3.56719 18.5672C3.50912 18.6253 3.44018 18.6713 3.36431 18.7027C3.28844 18.7342 3.20712 18.7503 3.125 18.7503C3.04288 18.7503 2.96156 18.7342 2.88569 18.7027C2.80982 18.6713 2.74088 18.6253 2.68281 18.5672C2.62474 18.5091 2.57868 18.4402 2.54725 18.3643C2.51583 18.2884 2.49965 18.2071 2.49965 18.125C2.49965 18.0429 2.51583 17.9616 2.54725 17.8857C2.57868 17.8098 2.62474 17.7409 2.68281 17.6828L6.84453 13.5219C6.96173 13.4048 7.12064 13.339 7.28633 13.339C7.45202 13.339 7.61093 13.4048 7.72812 13.5219L7.72578 13.5195ZM13.4289 13.4414C13.487 13.4995 13.5331 13.5684 13.5646 13.6443C13.596 13.7201 13.6122 13.8015 13.6122 13.8836C13.6122 13.9657 13.596 14.0471 13.5646 14.1229C13.5331 14.1988 13.487 14.2677 13.4289 14.3258L9.18828 18.5664C9.07101 18.6837 8.91195 18.7496 8.74609 18.7496C8.58024 18.7496 8.42118 18.6837 8.30391 18.5664C8.18663 18.4491 8.12075 18.2901 8.12075 18.1242C8.12075 17.9584 8.18663 17.7993 8.30391 17.682L12.5453 13.4414C12.6035 13.3829 12.6726 13.3364 12.7488 13.3048C12.825 13.2731 12.9067 13.2569 12.9892 13.2569C13.0717 13.257 13.1534 13.2734 13.2295 13.3052C13.3057 13.337 13.3748 13.3836 13.4328 13.4422L13.4289 13.4414Z" fill="var(--fill-0, #666661)"/>
</g>
</svg>
