<svg preserveAspectRatio="none" width="100%" height="100%" overflow="visible" style="display: block;" viewBox="0 0 20 20" fill="none" xmlns="http://www.w3.org/2000/svg">
<g id="material-symbols:cloud-outline">
<path id="Vector" d="M5.41667 16.6667C4.15278 16.6667 3.07306 16.2292 2.1775 15.3542C1.28194 14.4792 0.833889 13.4097 0.833333 12.1458C0.833333 11.0625 1.15972 10.0972 1.8125 9.25C2.46528 8.40278 3.31944 7.86111 4.375 7.625C4.72222 6.34722 5.41667 5.3125 6.45833 4.52083C7.5 3.72917 8.68056 3.33333 10 3.33333C11.625 3.33333 13.0036 3.89944 14.1358 5.03167C15.2681 6.16389 15.8339 7.54222 15.8333 9.16667C16.7917 9.27778 17.5869 9.69111 18.2192 10.4067C18.8514 11.1222 19.1672 11.9589 19.1667 12.9167C19.1667 13.9583 18.8022 14.8439 18.0733 15.5733C17.3444 16.3028 16.4589 16.6672 15.4167 16.6667H5.41667ZM5.41667 15H15.4167C16 15 16.4931 14.7986 16.8958 14.3958C17.2986 13.9931 17.5 13.5 17.5 12.9167C17.5 12.3333 17.2986 11.8403 16.8958 11.4375C16.4931 11.0347 16 10.8333 15.4167 10.8333H14.1667V9.16667C14.1667 8.01389 13.7603 7.03111 12.9475 6.21833C12.1347 5.40556 11.1522 4.99944 10 5C8.84778 5.00056 7.86528 5.40694 7.0525 6.21917C6.23972 7.03139 5.83333 8.01389 5.83333 9.16667H5.41667C4.61111 9.16667 3.92361 9.45139 3.35417 10.0208C2.78472 10.5903 2.5 11.2778 2.5 12.0833C2.5 12.8889 2.78472 13.5764 3.35417 14.1458C3.92361 14.7153 4.61111 15 5.41667 15Z" fill="var(--fill-0, #666661)"/>
</g>
</svg>
