<svg preserveAspectRatio="none" width="100%" height="100%" overflow="visible" style="display: block;" viewBox="0 0 28 28" fill="none" xmlns="http://www.w3.org/2000/svg">
<g id="ChatCircle">
<path id="Vector" d="M25.375 14C25.3754 15.9639 24.8674 17.8944 23.9004 19.6037C22.9333 21.3129 21.5403 22.7427 19.8567 23.7539C18.1732 24.765 16.2565 25.3231 14.2933 25.3737C12.3301 25.4243 10.3872 24.9658 8.65375 24.0428L4.92953 25.2842C4.62119 25.387 4.2903 25.402 3.97395 25.3273C3.6576 25.2527 3.3683 25.0914 3.13846 24.8615C2.90863 24.6317 2.74734 24.3424 2.67269 24.026C2.59803 23.7097 2.61295 23.3788 2.71578 23.0705L3.95719 19.3462C3.14579 17.8207 2.69259 16.1304 2.632 14.4036C2.5714 12.6767 2.90501 10.9588 3.60748 9.38015C4.30996 7.8015 5.36285 6.40363 6.68622 5.29265C8.0096 4.18167 9.56869 3.38677 11.2451 2.9683C12.9216 2.54983 14.6713 2.51878 16.3616 2.87751C18.0518 3.23624 19.6381 3.97532 21.0001 5.03865C22.3621 6.10199 23.4639 7.46162 24.2219 9.01435C24.98 10.5671 25.3743 12.2721 25.375 14Z" fill="var(--fill-0, white)"/>
</g>
</svg>
