<svg preserveAspectRatio="none" width="100%" height="100%" overflow="visible" style="display: block;" viewBox="0 0 12 9" fill="none" xmlns="http://www.w3.org/2000/svg">
<g id="Frame 114">
<path id="Vector" opacity="0.7" d="M11.7692 3.38108L6.55351 8.76258C6.48083 8.83783 6.39446 8.89754 6.29937 8.93828C6.20427 8.97903 6.10231 9 5.99935 9C5.89638 9 5.79442 8.97903 5.69933 8.93828C5.60423 8.89754 5.51787 8.83783 5.44518 8.76258L0.229542 3.38108C0.0825686 3.22943 -2.19007e-09 3.02376 0 2.8093C2.19007e-09 2.59484 0.0825686 2.38916 0.229542 2.23751C0.376515 2.08587 0.575853 2.00067 0.783704 2.00067C0.991555 2.00067 1.19089 2.08587 1.33787 2.23751L6 7.0479L10.6621 2.23684C10.8091 2.08519 11.0084 2 11.2163 2C11.4241 2 11.6235 2.08519 11.7705 2.23684C11.9174 2.38849 12 2.59416 12 2.80862C12 3.02309 11.9174 3.22876 11.7705 3.38041L11.7692 3.38108Z" fill="var(--fill-0, #666661)"/>
</g>
</svg>
