<svg preserveAspectRatio="none" width="100%" height="100%" overflow="visible" style="display: block;" viewBox="0 0 14.2864 14.2864" fill="none" xmlns="http://www.w3.org/2000/svg">
<path id="Soft Star" d="M6.95258 0.169338C6.97939 -0.056446 7.30702 -0.056446 7.33383 0.169338L7.55858 2.06346C7.84879 4.50928 9.77713 6.43763 12.2229 6.72783L14.1171 6.95258C14.3429 6.97939 14.3429 7.30702 14.1171 7.33383L12.2229 7.55858C9.77713 7.84879 7.84879 9.77713 7.55858 12.2229L7.33383 14.1171C7.30702 14.3429 6.97939 14.3429 6.95258 14.1171L6.72783 12.2229C6.43763 9.77713 4.50928 7.84879 2.06346 7.55858L0.169338 7.33383C-0.056446 7.30702 -0.056446 6.97939 0.169338 6.95258L2.06346 6.72783C4.50928 6.43763 6.43763 4.50928 6.72783 2.06346L6.95258 0.169338Z" fill="var(--fill-0, #DBF881)"/>
</svg>
