<svg preserveAspectRatio="none" width="100%" height="100%" overflow="visible" style="display: block;" viewBox="0 0 21 21" fill="none" xmlns="http://www.w3.org/2000/svg">
<g id="SealCheck">
<path id="Vector" d="M18.5276 8.43445C18.2183 8.11125 17.8984 7.7782 17.7778 7.48535C17.6663 7.21711 17.6597 6.7725 17.6531 6.34184C17.6408 5.54121 17.6277 4.63395 16.9969 4.00312C16.3661 3.3723 15.4588 3.35918 14.6582 3.34687C14.2275 3.34031 13.7829 3.33375 13.5146 3.22219C13.2226 3.1016 12.8887 2.78168 12.5655 2.47242C11.9995 1.92855 11.3564 1.3125 10.5 1.3125C9.64359 1.3125 9.00129 1.92855 8.43445 2.47242C8.11125 2.78168 7.7782 3.1016 7.48535 3.22219C7.21875 3.33375 6.7725 3.34031 6.34184 3.34687C5.54121 3.35918 4.63395 3.3723 4.00312 4.00312C3.3723 4.63395 3.36328 5.54121 3.34687 6.34184C3.34031 6.7725 3.33375 7.21711 3.22219 7.48535C3.1016 7.77738 2.78168 8.11125 2.47242 8.43445C1.92855 9.00047 1.3125 9.64359 1.3125 10.5C1.3125 11.3564 1.92855 11.9987 2.47242 12.5655C2.78168 12.8887 3.1016 13.2218 3.22219 13.5146C3.33375 13.7829 3.34031 14.2275 3.34687 14.6582C3.35918 15.4588 3.3723 16.3661 4.00312 16.9969C4.63395 17.6277 5.54121 17.6408 6.34184 17.6531C6.7725 17.6597 7.21711 17.6663 7.48535 17.7778C7.77738 17.8984 8.11125 18.2183 8.43445 18.5276C9.00047 19.0714 9.64359 19.6875 10.5 19.6875C11.3564 19.6875 11.9987 19.0714 12.5655 18.5276C12.8887 18.2183 13.2218 17.8984 13.5146 17.7778C13.7829 17.6663 14.2275 17.6597 14.6582 17.6531C15.4588 17.6408 16.3661 17.6277 16.9969 16.9969C17.6277 16.3661 17.6408 15.4588 17.6531 14.6582C17.6597 14.2275 17.6663 13.7829 17.7778 13.5146C17.8984 13.2226 18.2183 12.8887 18.5276 12.5655C19.0714 11.9995 19.6875 11.3564 19.6875 10.5C19.6875 9.64359 19.0714 9.00129 18.5276 8.43445ZM17.5801 11.6575C17.1872 12.0676 16.7803 12.4917 16.5646 13.0126C16.3579 13.513 16.3488 14.0848 16.3406 14.6385C16.3324 15.2127 16.3234 15.814 16.0683 16.0683C15.8132 16.3226 15.216 16.3324 14.6385 16.3406C14.0848 16.3488 13.513 16.3579 13.0126 16.5646C12.4917 16.7803 12.0676 17.1872 11.6575 17.5801C11.2473 17.973 10.8281 18.375 10.5 18.375C10.1719 18.375 9.74941 17.9714 9.34254 17.5801C8.93566 17.1888 8.50828 16.7803 7.98738 16.5646C7.48699 16.3579 6.91523 16.3488 6.36152 16.3406C5.7873 16.3324 5.18602 16.3234 4.93172 16.0683C4.67742 15.8132 4.66758 15.216 4.65937 14.6385C4.65117 14.0848 4.64215 13.513 4.43543 13.0126C4.21969 12.4917 3.81281 12.0676 3.41988 11.6575C3.02695 11.2473 2.625 10.8281 2.625 10.5C2.625 10.1719 3.02859 9.74941 3.41988 9.34254C3.81117 8.93566 4.21969 8.50828 4.43543 7.98738C4.64215 7.48699 4.65117 6.91523 4.65937 6.36152C4.66758 5.7873 4.6766 5.18602 4.93172 4.93172C5.18684 4.67742 5.78402 4.66758 6.36152 4.65937C6.91523 4.65117 7.48699 4.64215 7.98738 4.43543C8.50828 4.21969 8.93238 3.81281 9.34254 3.41988C9.7527 3.02695 10.1719 2.625 10.5 2.625C10.8281 2.625 11.2506 3.02859 11.6575 3.41988C12.0643 3.81117 12.4917 4.21969 13.0126 4.43543C13.513 4.64215 14.0848 4.65117 14.6385 4.65937C15.2127 4.66758 15.814 4.6766 16.0683 4.93172C16.3226 5.18684 16.3324 5.78402 16.3406 6.36152C16.3488 6.91523 16.3579 7.48699 16.5646 7.98738C16.7803 8.50828 17.1872 8.93238 17.5801 9.34254C17.973 9.7527 18.375 10.1719 18.375 10.5C18.375 10.8281 17.9714 11.2506 17.5801 11.6575ZM14.2455 8.06695C14.3066 8.1279 14.355 8.20028 14.388 8.27995C14.421 8.35961 14.438 8.44501 14.438 8.53125C14.438 8.61749 14.421 8.70289 14.388 8.78255C14.355 8.86222 14.3066 8.9346 14.2455 8.99555L9.6518 13.5893C9.59085 13.6503 9.51847 13.6987 9.4388 13.7317C9.35914 13.7648 9.27374 13.7818 9.1875 13.7818C9.10126 13.7818 9.01586 13.7648 8.9362 13.7317C8.85653 13.6987 8.78415 13.6503 8.7232 13.5893L6.75445 11.6205C6.63131 11.4974 6.56214 11.3304 6.56214 11.1562C6.56214 10.9821 6.63131 10.8151 6.75445 10.692C6.87759 10.5688 7.0446 10.4996 7.21875 10.4996C7.3929 10.4996 7.55991 10.5688 7.68305 10.692L9.1875 12.1972L13.317 8.06695C13.3779 8.00594 13.4503 7.95753 13.5299 7.92451C13.6096 7.89148 13.695 7.87448 13.7812 7.87448C13.8675 7.87448 13.9529 7.89148 14.0326 7.92451C14.1122 7.95753 14.1846 8.00594 14.2455 8.06695Z" fill="var(--fill-0, #0E4DCA)"/>
</g>
</svg>
