<svg preserveAspectRatio="none" width="100%" height="100%" overflow="visible" style="display: block;" viewBox="0 0 19 19" fill="none" xmlns="http://www.w3.org/2000/svg">
<g id="Medal">
<path id="Vector" d="M16.0313 7.125C16.0319 6.02434 15.7544 4.94136 15.2245 3.97666C14.6946 3.01196 13.9294 2.19682 13.0002 1.60696C12.0709 1.0171 11.0077 0.671654 9.90916 0.602702C8.81066 0.533749 7.71255 0.74353 6.71682 1.21256C5.7211 1.68159 4.86005 2.39465 4.21367 3.28552C3.56728 4.17638 3.15652 5.21616 3.01953 6.30826C2.88255 7.40037 3.02378 8.50938 3.43012 9.53229C3.83645 10.5552 4.49471 11.4588 5.34375 12.1593V17.8125C5.34368 17.9138 5.3695 18.0134 5.41877 18.1018C5.46804 18.1903 5.53912 18.2647 5.62525 18.3179C5.71137 18.3712 5.80969 18.4015 5.91085 18.4061C6.01201 18.4106 6.11265 18.3892 6.2032 18.3439L9.5 16.6992L12.7975 18.3476C12.8802 18.3872 12.9709 18.4072 13.0625 18.4063C13.22 18.4063 13.371 18.3437 13.4823 18.2323C13.5937 18.121 13.6563 17.97 13.6563 17.8125V12.1593C14.3991 11.5474 14.9973 10.7787 15.408 9.90831C15.8186 9.03791 16.0315 8.0874 16.0313 7.125ZM4.15625 7.125C4.15625 6.06811 4.46966 5.03495 5.05683 4.15617C5.64401 3.2774 6.47859 2.59247 7.45504 2.18802C8.43148 1.78356 9.50593 1.67774 10.5425 1.88393C11.5791 2.09012 12.5313 2.59906 13.2786 3.3464C14.0259 4.09373 14.5349 5.0459 14.7411 6.08249C14.9473 7.11907 14.8414 8.19352 14.437 9.16996C14.0325 10.1464 13.3476 10.981 12.4688 11.5682C11.5901 12.1553 10.5569 12.4688 9.5 12.4688C8.08323 12.4672 6.72494 11.9037 5.72313 10.9019C4.72133 9.90006 4.15782 8.54177 4.15625 7.125ZM12.4688 16.8521L9.76496 15.5006C9.68247 15.4593 9.5915 15.4378 9.49926 15.4378C9.40702 15.4378 9.31604 15.4593 9.23355 15.5006L6.53125 16.8521V12.9415C7.45035 13.4113 8.46781 13.6562 9.5 13.6562C10.5322 13.6562 11.5497 13.4113 12.4688 12.9415V16.8521ZM9.5 11.2813C10.322 11.2813 11.1256 11.0375 11.8091 10.5808C12.4926 10.1241 13.0253 9.47498 13.3399 8.71553C13.6545 7.95607 13.7368 7.12039 13.5764 6.31416C13.416 5.50792 13.0202 4.76735 12.4389 4.18609C11.8577 3.60483 11.1171 3.20898 10.3108 3.04861C9.50461 2.88824 8.66893 2.97055 7.90947 3.28513C7.15002 3.5997 6.5009 4.13242 6.0442 4.81591C5.58751 5.4994 5.34375 6.30297 5.34375 7.125C5.34493 8.22694 5.7832 9.28342 6.56239 10.0626C7.34158 10.8418 8.39806 11.2801 9.5 11.2813ZM9.5 4.15625C10.0872 4.15625 10.6611 4.33036 11.1493 4.65657C11.6376 4.98279 12.0181 5.44644 12.2428 5.98891C12.4675 6.53138 12.5263 7.12829 12.4117 7.70417C12.2972 8.28006 12.0144 8.80904 11.5992 9.22422C11.184 9.63941 10.6551 9.92216 10.0792 10.0367C9.50329 10.1513 8.90638 10.0925 8.36391 9.86777C7.82144 9.64307 7.35779 9.26256 7.03157 8.77435C6.70536 8.28614 6.53125 7.71216 6.53125 7.125C6.53125 6.33764 6.84403 5.58253 7.40078 5.02578C7.95753 4.46903 8.71264 4.15625 9.5 4.15625Z" fill="var(--fill-0, #146129)"/>
</g>
</svg>
