<svg preserveAspectRatio="none" width="100%" height="100%" overflow="visible" style="display: block;" viewBox="0 0 40 40" fill="none" xmlns="http://www.w3.org/2000/svg">
<g id="Question">
<path id="Vector" d="M21.3846 26C21.3846 26.2738 21.3034 26.5415 21.1513 26.7692C20.9991 26.9969 20.7829 27.1744 20.5299 27.2792C20.2769 27.384 19.9985 27.4114 19.7299 27.358C19.4613 27.3046 19.2146 27.1727 19.0209 26.9791C18.8273 26.7854 18.6954 26.5387 18.642 26.2701C18.5886 26.0015 18.616 25.7231 18.7208 25.4701C18.8256 25.2171 19.0031 25.0009 19.2308 24.8487C19.4585 24.6966 19.7262 24.6154 20 24.6154C20.3672 24.6154 20.7194 24.7613 20.9791 25.0209C21.2387 25.2806 21.3846 25.6328 21.3846 26ZM20 13.5385C17.4546 13.5385 15.3846 15.4019 15.3846 17.6923V18.1538C15.3846 18.3987 15.4819 18.6334 15.655 18.8066C15.8281 18.9797 16.0629 19.0769 16.3077 19.0769C16.5525 19.0769 16.7873 18.9797 16.9604 18.8066C17.1335 18.6334 17.2308 18.3987 17.2308 18.1538V17.6923C17.2308 16.4231 18.4735 15.3846 20 15.3846C21.5265 15.3846 22.7692 16.4231 22.7692 17.6923C22.7692 18.9615 21.5265 20 20 20C19.7552 20 19.5204 20.0972 19.3473 20.2704C19.1742 20.4435 19.0769 20.6783 19.0769 20.9231V21.8462C19.0769 22.091 19.1742 22.3258 19.3473 22.4989C19.5204 22.672 19.7552 22.7692 20 22.7692C20.2448 22.7692 20.4796 22.672 20.6527 22.4989C20.8258 22.3258 20.9231 22.091 20.9231 21.8462V21.7631C23.0277 21.3765 24.6154 19.6977 24.6154 17.6923C24.6154 15.4019 22.5454 13.5385 20 13.5385ZM32 20C32 22.3734 31.2962 24.6934 29.9776 26.6668C28.6591 28.6402 26.7849 30.1783 24.5922 31.0865C22.3995 31.9948 19.9867 32.2324 17.6589 31.7694C15.3311 31.3064 13.193 30.1635 11.5147 28.4853C9.83649 26.807 8.6936 24.6689 8.23058 22.3411C7.76756 20.0133 8.0052 17.6005 8.91345 15.4078C9.8217 13.2151 11.3598 11.3409 13.3332 10.0224C15.3066 8.70379 17.6266 8 20 8C23.1816 8.00336 26.2319 9.26872 28.4816 11.5184C30.7313 13.7681 31.9966 16.8184 32 20ZM30.1538 20C30.1538 17.9918 29.5583 16.0286 28.4426 14.3588C27.3269 12.689 25.7411 11.3876 23.8857 10.6191C22.0303 9.85055 19.9887 9.64947 18.0191 10.0413C16.0494 10.433 14.2402 11.4001 12.8202 12.8201C11.4001 14.2402 10.4331 16.0494 10.0413 18.0191C9.64947 19.9887 9.85055 22.0303 10.6191 23.8857C11.3876 25.7411 12.689 27.3269 14.3588 28.4426C16.0286 29.5583 17.9918 30.1538 20 30.1538C22.692 30.1508 25.2729 29.08 27.1765 27.1765C29.08 25.2729 30.1508 22.692 30.1538 20Z" fill="var(--fill-0, #666661)"/>
</g>
</svg>
