<svg preserveAspectRatio="none" width="100%" height="100%" overflow="visible" style="display: block;" viewBox="0 0 40 40" fill="none" xmlns="http://www.w3.org/2000/svg">
<g id="Gear">
<path id="Vector" d="M19.9983 14.4945C18.9097 14.4945 17.8457 14.8173 16.9406 15.4221C16.0355 16.0268 15.3301 16.8864 14.9135 17.8921C14.4969 18.8978 14.3879 20.0044 14.6003 21.072C14.8127 22.1396 15.3368 23.1203 16.1065 23.89C16.8763 24.6597 17.8569 25.1839 18.9246 25.3963C19.9922 25.6086 21.0988 25.4996 22.1045 25.0831C23.1101 24.6665 23.9697 23.9611 24.5745 23.056C25.1792 22.1509 25.502 21.0868 25.502 19.9983C25.5005 18.5391 24.9202 17.14 23.8883 16.1082C22.8565 15.0764 21.4575 14.4961 19.9983 14.4945ZM19.9983 23.6674C19.2726 23.6674 18.5632 23.4522 17.9598 23.0491C17.3564 22.6459 16.8861 22.0729 16.6084 21.4024C16.3307 20.732 16.258 19.9942 16.3996 19.2825C16.5412 18.5707 16.8907 17.9169 17.4038 17.4038C17.9169 16.8907 18.5707 16.5412 19.2825 16.3996C19.9942 16.258 20.732 16.3307 21.4024 16.6084C22.0729 16.8861 22.6459 17.3564 23.0491 17.9598C23.4522 18.5632 23.6674 19.2726 23.6674 19.9983C23.6674 20.9714 23.2809 21.9047 22.5928 22.5928C21.9047 23.2809 20.9714 23.6674 19.9983 23.6674ZM30.0885 20.2459C30.0931 20.0808 30.0931 19.9157 30.0885 19.7506L31.7992 17.6133C31.8889 17.5011 31.951 17.3694 31.9805 17.2288C32.01 17.0882 32.006 16.9426 31.9689 16.8038C31.6885 15.7496 31.2689 14.7374 30.7214 13.794C30.6497 13.6705 30.5502 13.5655 30.4307 13.4872C30.3113 13.409 30.1753 13.3597 30.0334 13.3433L27.3137 13.0406C27.2005 12.9214 27.0859 12.8067 26.9697 12.6966L26.6486 9.97C26.6321 9.82807 26.5827 9.69195 26.5042 9.57251C26.4258 9.45307 26.3206 9.3536 26.1969 9.28204C25.253 8.7355 24.2409 8.3164 23.187 8.03567C23.0481 7.99874 22.9025 7.99497 22.7619 8.02464C22.6213 8.05432 22.4896 8.11662 22.3775 8.20651L20.2459 9.90809C20.0808 9.90809 19.9157 9.90809 19.7506 9.90809L17.6133 8.20078C17.5011 8.11108 17.3694 8.04899 17.2288 8.01951C17.0882 7.99004 16.9426 7.994 16.8038 8.03108C15.7498 8.31203 14.7377 8.73153 13.794 9.2786C13.6705 9.35029 13.5655 9.44982 13.4872 9.56925C13.409 9.68869 13.3597 9.82473 13.3433 9.96656L13.0406 12.6909C12.9214 12.8048 12.8067 12.9195 12.6966 13.0349L9.97 13.3479C9.82807 13.3644 9.69195 13.4139 9.57251 13.4923C9.45307 13.5708 9.3536 13.676 9.28204 13.7997C8.7355 14.7435 8.3164 15.7556 8.03567 16.8096C7.99874 16.9484 7.99497 17.094 8.02464 17.2347C8.05432 17.3753 8.11662 17.5069 8.20651 17.6191L9.90809 19.7506C9.90809 19.9157 9.90809 20.0808 9.90809 20.2459L8.20078 22.3832C8.11108 22.4955 8.04899 22.6272 8.01951 22.7678C7.99004 22.9084 7.994 23.0539 8.03108 23.1927C8.31153 24.2469 8.73105 25.2591 9.2786 26.2026C9.35029 26.3261 9.44982 26.4311 9.56925 26.5093C9.68869 26.5876 9.82473 26.6368 9.96656 26.6532L12.6863 26.9559C12.8002 27.0752 12.9149 27.1898 13.0303 27.2999L13.3479 30.0266C13.3644 30.1685 13.4139 30.3046 13.4923 30.4241C13.5708 30.5435 13.676 30.643 13.7997 30.7145C14.7435 31.2611 15.7556 31.6802 16.8096 31.9609C16.9484 31.9978 17.094 32.0016 17.2347 31.9719C17.3753 31.9422 17.5069 31.8799 17.6191 31.79L19.7506 30.0885C19.9157 30.0931 20.0808 30.0931 20.2459 30.0885L22.3832 31.7992C22.4955 31.8889 22.6272 31.951 22.7678 31.9805C22.9084 32.01 23.0539 32.006 23.1927 31.9689C24.2469 31.6885 25.2591 31.2689 26.2026 30.7214C26.3261 30.6497 26.4311 30.5502 26.5093 30.4307C26.5876 30.3113 26.6368 30.1753 26.6532 30.0334L26.9559 27.3137C27.0752 27.2005 27.1898 27.0859 27.2999 26.9697L30.0266 26.6486C30.1685 26.6321 30.3046 26.5827 30.4241 26.5042C30.5435 26.4258 30.643 26.3206 30.7145 26.1969C31.2611 25.253 31.6802 24.2409 31.9609 23.187C31.9978 23.0481 32.0016 22.9025 31.9719 22.7619C31.9422 22.6213 31.8799 22.4896 31.79 22.3775L30.0885 20.2459ZM28.2424 19.5007C28.2619 19.8321 28.2619 20.1644 28.2424 20.4959C28.2288 20.7228 28.2999 20.9468 28.4419 21.1243L30.069 23.1572C29.8823 23.7505 29.6432 24.3261 29.3546 24.8771L26.7633 25.1707C26.5376 25.1957 26.3293 25.3036 26.1785 25.4734C25.9578 25.7216 25.7227 25.9567 25.4745 26.1774C25.3047 26.3281 25.1968 26.5365 25.1718 26.7621L24.884 29.3512C24.333 29.6399 23.7575 29.879 23.1641 30.0655L21.13 28.4385C20.9672 28.3084 20.765 28.2377 20.5567 28.2378H20.5016C20.1702 28.2573 19.8379 28.2573 19.5064 28.2378C19.2794 28.2242 19.0555 28.2953 18.878 28.4374L16.8394 30.0655C16.246 29.8788 15.6705 29.6398 15.1194 29.3512L14.8259 26.7633C14.8009 26.5376 14.693 26.3293 14.5232 26.1785C14.275 25.9578 14.0399 25.7227 13.8192 25.4745C13.6684 25.3047 13.4601 25.1968 13.2344 25.1718L10.6454 24.8829C10.3566 24.3319 10.1176 23.7563 9.93102 23.1629L11.5581 21.1288C11.7001 20.9514 11.7712 20.7274 11.7576 20.5005C11.7381 20.169 11.7381 19.8367 11.7576 19.5052C11.7712 19.2783 11.7001 19.0544 11.5581 18.8769L9.93102 16.8394C10.1177 16.246 10.3568 15.6705 10.6454 15.1194L13.2333 14.8259C13.4589 14.8009 13.6673 14.693 13.818 14.5232C14.0387 14.275 14.2738 14.0399 14.5221 13.8192C14.6925 13.6683 14.8008 13.4595 14.8259 13.2333L15.1137 10.6454C15.6647 10.3566 16.2402 10.1176 16.8336 9.93102L18.8677 11.5581C19.0452 11.7001 19.2691 11.7712 19.4961 11.7576C19.8275 11.7381 20.1599 11.7381 20.4913 11.7576C20.7183 11.7712 20.9422 11.7001 21.1197 11.5581L23.1572 9.93102C23.7505 10.1177 24.3261 10.3568 24.8771 10.6454L25.1707 13.2333C25.1957 13.4589 25.3036 13.6673 25.4734 13.818C25.7216 14.0387 25.9567 14.2738 26.1774 14.5221C26.3281 14.6919 26.5365 14.7997 26.7621 14.8248L29.3512 15.1126C29.6399 15.6635 29.879 16.2391 30.0655 16.8325L28.4385 18.8666C28.2951 19.0456 28.2239 19.2718 28.239 19.5007H28.2424Z" fill="var(--fill-0, #050500)"/>
</g>
</svg>
