<svg preserveAspectRatio="none" width="100%" height="100%" overflow="visible" style="display: block;" viewBox="0 0 28 28" fill="none" xmlns="http://www.w3.org/2000/svg">
<g id="ChatCircleDots">
<path id="Vector" d="M14 2.625C12.0361 2.62457 10.1056 3.1326 8.39634 4.09963C6.68706 5.06665 5.25727 6.45974 4.24613 8.1433C3.23498 9.82685 2.67693 11.7435 2.6263 13.7067C2.57567 15.6699 3.03417 17.6128 3.95719 19.3463L2.71578 23.0705C2.61295 23.3788 2.59803 23.7097 2.67269 24.026C2.74734 24.3424 2.90863 24.6317 3.13846 24.8615C3.3683 25.0914 3.6576 25.2527 3.97395 25.3273C4.2903 25.402 4.62119 25.387 4.92953 25.2842L8.65375 24.0428C10.1793 24.8542 11.8696 25.3074 13.5964 25.368C15.3233 25.4286 17.0412 25.095 18.6199 24.3925C20.1985 23.69 21.5964 22.6372 22.7073 21.3138C23.8183 19.9904 24.6132 18.4313 25.0317 16.7549C25.4502 15.0784 25.4812 13.3287 25.1225 11.6384C24.7638 9.94817 24.0247 8.36187 22.9613 6.99991C21.898 5.63795 20.5384 4.53613 18.9856 3.77809C17.4329 3.02005 15.7279 2.62571 14 2.625ZM9.1875 15.3125C8.92791 15.3125 8.67415 15.2355 8.45831 15.0913C8.24247 14.9471 8.07425 14.7421 7.97491 14.5023C7.87557 14.2624 7.84958 13.9985 7.90022 13.7439C7.95086 13.4893 8.07587 13.2555 8.25942 13.0719C8.44298 12.8884 8.67684 12.7634 8.93144 12.7127C9.18604 12.6621 9.44994 12.6881 9.68977 12.7874C9.9296 12.8867 10.1346 13.055 10.2788 13.2708C10.423 13.4867 10.5 13.7404 10.5 14C10.5 14.3481 10.3617 14.6819 10.1156 14.9281C9.86943 15.1742 9.5356 15.3125 9.1875 15.3125ZM14 15.3125C13.7404 15.3125 13.4867 15.2355 13.2708 15.0913C13.055 14.9471 12.8867 14.7421 12.7874 14.5023C12.6881 14.2624 12.6621 13.9985 12.7127 13.7439C12.7634 13.4893 12.8884 13.2555 13.0719 13.0719C13.2555 12.8884 13.4893 12.7634 13.7439 12.7127C13.9985 12.6621 14.2624 12.6881 14.5023 12.7874C14.7421 12.8867 14.9471 13.055 15.0913 13.2708C15.2355 13.4867 15.3125 13.7404 15.3125 14C15.3125 14.3481 15.1742 14.6819 14.9281 14.9281C14.6819 15.1742 14.3481 15.3125 14 15.3125ZM18.8125 15.3125C18.5529 15.3125 18.2992 15.2355 18.0833 15.0913C17.8675 14.9471 17.6992 14.7421 17.5999 14.5023C17.5006 14.2624 17.4746 13.9985 17.5252 13.7439C17.5759 13.4893 17.7009 13.2555 17.8844 13.0719C18.068 12.8884 18.3018 12.7634 18.5564 12.7127C18.811 12.6621 19.0749 12.6881 19.3148 12.7874C19.5546 12.8867 19.7596 13.055 19.9038 13.2708C20.048 13.4867 20.125 13.7404 20.125 14C20.125 14.3481 19.9867 14.6819 19.7406 14.9281C19.4944 15.1742 19.1606 15.3125 18.8125 15.3125Z" fill="var(--fill-0, #00803E)"/>
</g>
</svg>
