<svg preserveAspectRatio="none" width="100%" height="100%" overflow="visible" style="display: block;" viewBox="0 0 22 22" fill="none" xmlns="http://www.w3.org/2000/svg">
<g id="info">
<path id="Vector" d="M10.0833 6.41667H11.9167V8.25H10.0833V6.41667ZM10.0833 10.0833H11.9167V15.5833H10.0833V10.0833ZM11 1.83333C5.94 1.83333 1.83333 5.94 1.83333 11C1.83333 16.06 5.94 20.1667 11 20.1667C16.06 20.1667 20.1667 16.06 20.1667 11C20.1667 5.94 16.06 1.83333 11 1.83333ZM11 18.3333C6.9575 18.3333 3.66667 15.0425 3.66667 11C3.66667 6.9575 6.9575 3.66667 11 3.66667C15.0425 3.66667 18.3333 6.9575 18.3333 11C18.3333 15.0425 15.0425 18.3333 11 18.3333Z" fill="var(--fill-0, #666661)"/>
</g>
</svg>
