<svg preserveAspectRatio="none" width="100%" height="100%" overflow="visible" style="display: block;" viewBox="0 0 24 24" fill="none" xmlns="http://www.w3.org/2000/svg">
<g id="Frame">
<path id="Vector" d="M16.6154 10.1538H7.38462C6.11011 10.1538 5.07692 11.187 5.07692 12.4615V18C5.07692 19.2745 6.11011 20.3077 7.38462 20.3077H16.6154C17.8899 20.3077 18.9231 19.2745 18.9231 18V12.4615C18.9231 11.187 17.8899 10.1538 16.6154 10.1538Z" stroke="var(--stroke-0, #050500)" stroke-width="2.03077"/>
<path id="Vector_2" d="M7.84615 10.1538V7.84615C7.84615 6.74449 8.28379 5.68794 9.06279 4.90894C9.84178 4.12994 10.8983 3.69231 12 3.69231C13.1017 3.69231 14.1582 4.12994 14.9372 4.90894C15.7162 5.68794 16.1538 6.74449 16.1538 7.84615V10.1538" stroke="var(--stroke-0, #050500)" stroke-width="2.03077"/>
</g>
</svg>
