<svg preserveAspectRatio="none" width="100%" height="100%" overflow="visible" style="display: block;" viewBox="0 0 24 24" fill="none" xmlns="http://www.w3.org/2000/svg">
<g id="Frame">
<path id="Vector" d="M9.23077 3.23077V8.76923L4.43077 17.5385C4.2658 17.8237 4.1802 18.148 4.18286 18.4775C4.18552 18.8071 4.27634 19.1299 4.44589 19.4125C4.61544 19.695 4.85754 19.9271 5.14706 20.0845C5.43658 20.2419 5.76295 20.319 6.09231 20.3077H17.9077C18.237 20.319 18.5634 20.2419 18.8529 20.0845C19.1425 19.9271 19.3846 19.695 19.5541 19.4125C19.7237 19.1299 19.8145 18.8071 19.8171 18.4775C19.8198 18.148 19.7342 17.8237 19.5692 17.5385L14.7692 8.76923V3.23077" stroke="var(--stroke-0, #050500)" stroke-width="2.03077" stroke-linejoin="round"/>
<path id="Vector_2" d="M8.30769 3.23077H15.6923" stroke="var(--stroke-0, #050500)" stroke-width="2.03077" stroke-linecap="round"/>
</g>
</svg>
